# xmcd
#
# Track frame offsets: 
#        150
#        10803
#        24696
#        35258
#        48980
#        57034
#        70104
#        84540
#        97707
#        109569
#        123957
#        134195
#        147026
#
# Disc length: 1983 seconds
#
# Revision: 0
# Processed by: cddbd v1.5.2PL0 Copyright (c) Steve Scherf et al.
# Submitted via: ExactAudioCopy v0.99pb4
#
DISCID=a207bd0d
DTITLE=Gail Bliss - It's About Cline
DYEAR=2009
DGENRE=Country
TTITLE0=01-Strange.mp3
TTITLE1=02-She's Got You.mp3
TTITLE2=03-Honky Tonk Merry-Go-Round.mp3
TTITLE3=04-(If I Could See The World)  Through The Eyes Of A Child.mp3
TTITLE4=05-Back In Baby's Arms.mp3
TTITLE5=06-I Fall To Pieces.mp3
TTITLE6=07-San Antonio Rose.mp3
TTITLE7=08-Always.mp3
TTITLE8=09-Top Of Two.mp3
TTITLE9=10-Imagine That.mp3
TTITLE10=11-Walkin' The Dog.mp3
TTITLE11=12-Never No More.mp3
TTITLE12=13-Ending.mp3
EXTD=
EXTT0=
EXTT1=
EXTT2=
EXTT3=
EXTT4=
EXTT5=
EXTT6=
EXTT7=
EXTT8=
EXTT9=
EXTT10=
EXTT11=
EXTT12=
PLAYORDER=
